<?xml version="1.0" standalone="no"?>
<!DOCTYPE svg PUBLIC "-//W3C//DTD SVG 20010904//EN"
 "http://www.w3.org/TR/2001/REC-SVG-20010904/DTD/svg10.dtd">
<svg version="1.0" xmlns="http://www.w3.org/2000/svg"
 width="1122.000000pt" height="1122.000000pt" viewBox="0 0 1122.000000 1122.000000"
 preserveAspectRatio="xMidYMid meet">
<metadata>
Created by potrace 1.11, written by Peter Selinger 2001-2013
</metadata>
<g transform="translate(0.000000,1122.000000) scale(0.100000,-0.100000)"
fill="#000000" stroke="none">
<path d="M5256 10872 c-4 -3 -26 -7 -49 -8 -37 -1 -71 -4 -202 -19 -16 -1 -30
-4 -30 -5 0 -1 -22 -3 -50 -5 -27 -2 -63 -6 -80 -8 -16 -3 -52 -7 -80 -11 -27
-4 -57 -9 -65 -11 -18 -5 -84 -16 -120 -20 -14 -2 -27 -4 -30 -6 -3 -1 -9 -3
-15 -4 -37 -6 -133 -27 -145 -32 -8 -3 -26 -7 -40 -9 -14 -1 -36 -6 -50 -9
-14 -3 -32 -8 -40 -10 -8 -2 -15 -4 -15 -5 0 -2 -35 -10 -63 -14 -12 -1 -25
-6 -29 -9 -3 -4 -12 -7 -19 -7 -7 0 -25 -5 -41 -12 -15 -6 -31 -11 -34 -10 -4
1 -40 -10 -80 -24 -72 -24 -91 -30 -126 -38 -10 -2 -36 -12 -58 -22 -22 -10
-44 -17 -49 -16 -4 2 -14 -2 -21 -8 -7 -6 -22 -12 -33 -15 -11 -2 -40 -13 -65
-24 -25 -12 -49 -21 -52 -21 -3 0 -21 -7 -41 -15 -19 -8 -38 -15 -42 -16 -4
-1 -27 -12 -52 -25 -56 -27 -143 -68 -150 -69 -3 0 -25 -12 -50 -25 -25 -13
-81 -41 -125 -63 -44 -22 -81 -44 -83 -48 -2 -5 -12 -9 -23 -9 -10 0 -19 -4
-19 -8 0 -4 -24 -20 -52 -35 -60 -31 -60 -32 -178 -107 -47 -30 -96 -60 -110
-68 -13 -7 -27 -16 -30 -20 -3 -4 -32 -25 -64 -47 -33 -22 -65 -46 -73 -53 -7
-7 -13 -11 -13 -8 0 3 -9 -2 -19 -11 -11 -10 -26 -23 -33 -28 -7 -6 -46 -35
-85 -65 -40 -30 -73 -58 -73 -62 0 -5 -5 -8 -10 -8 -6 0 -22 -10 -35 -22 -13
-13 -45 -41 -71 -63 -135 -115 -346 -321 -474 -464 -41 -46 -80 -89 -85 -95
-6 -6 -26 -31 -45 -56 -19 -25 -40 -49 -46 -55 -6 -5 -24 -28 -40 -50 -33 -45
-54 -72 -70 -89 -6 -6 -19 -24 -30 -41 -23 -36 -33 -50 -57 -76 -9 -10 -17
-22 -17 -26 -1 -5 -9 -18 -19 -29 -11 -12 -22 -31 -25 -42 -4 -11 -13 -23 -21
-26 -8 -3 -15 -12 -15 -21 0 -8 -4 -15 -9 -15 -5 0 -11 -8 -15 -17 -3 -10 -15
-31 -26 -48 -11 -16 -23 -38 -26 -47 -4 -10 -10 -18 -15 -18 -5 0 -9 -7 -9
-15 0 -8 -4 -15 -10 -15 -5 0 -10 -4 -10 -9 0 -4 -22 -46 -48 -92 -27 -47 -71
-127 -98 -179 -27 -52 -53 -98 -57 -101 -5 -3 -8 -9 -7 -13 1 -4 -15 -40 -34
-82 -20 -41 -36 -79 -36 -84 0 -6 -4 -10 -8 -10 -5 0 -9 -6 -9 -12 -1 -7 -26
-73 -57 -147 -31 -73 -56 -139 -56 -147 0 -8 -4 -14 -8 -14 -5 0 -9 -6 -10
-12 -1 -19 -7 -39 -20 -71 -7 -16 -12 -34 -12 -41 0 -7 -3 -16 -7 -20 -5 -4
-8 -11 -9 -14 -2 -16 -17 -68 -23 -77 -3 -5 -6 -14 -8 -20 -11 -53 -49 -181
-56 -192 -5 -7 -6 -17 -2 -22 3 -5 1 -12 -4 -15 -5 -4 -12 -25 -16 -49 -8 -45
-9 -48 -26 -117 -15 -63 -20 -82 -24 -105 -2 -11 -6 -31 -9 -45 -3 -14 -8 -41
-11 -60 -2 -19 -9 -55 -15 -80 -5 -25 -12 -65 -15 -90 -2 -25 -6 -58 -9 -75
-4 -27 -8 -56 -21 -170 -7 -54 -17 -193 -18 -227 0 -16 -5 -28 -9 -28 -5 0 -6
-5 -3 -11 10 -15 13 -59 4 -54 -4 3 -8 -103 -8 -235 -1 -179 2 -239 11 -234 7
4 8 3 4 -4 -11 -18 -16 -52 -7 -52 4 0 8 -7 8 -15 0 -8 -5 -15 -10 -15 -6 0
-6 -5 0 -12 6 -7 11 -38 12 -68 3 -62 6 -100 16 -180 4 -30 8 -73 11 -95 6
-66 20 -157 27 -191 5 -22 12 -64 23 -131 3 -21 7 -46 10 -55 3 -9 7 -27 9
-40 3 -13 9 -44 15 -69 6 -26 13 -55 15 -65 2 -11 4 -19 5 -19 1 0 4 -11 6
-25 3 -14 9 -43 15 -65 6 -22 13 -47 14 -55 2 -8 15 -53 30 -100 14 -47 27
-89 28 -95 2 -5 6 -16 10 -23 5 -6 6 -12 3 -12 -3 0 6 -30 20 -66 13 -36 22
-70 19 -75 -4 -5 -2 -9 3 -9 6 0 13 -12 18 -28 4 -15 8 -29 9 -32 1 -3 8 -21
17 -41 9 -20 19 -47 23 -60 4 -13 13 -37 20 -54 28 -62 48 -110 49 -115 3 -17
71 -156 78 -158 4 -2 8 -11 8 -19 0 -14 102 -217 157 -313 11 -19 29 -51 39
-70 11 -19 21 -37 24 -40 3 -3 23 -34 44 -70 22 -36 59 -94 83 -130 24 -36 48
-72 53 -80 10 -15 84 -119 125 -175 11 -15 25 -32 30 -39 6 -6 24 -29 40 -51
17 -22 32 -42 35 -45 3 -3 25 -30 50 -60 25 -30 49 -60 55 -66 5 -6 35 -40 65
-75 30 -35 74 -83 98 -108 23 -24 42 -49 42 -54 0 -6 3 -8 6 -5 3 4 22 -12 42
-35 20 -23 44 -47 52 -53 8 -7 47 -43 85 -80 74 -73 144 -137 214 -194 24 -19
48 -40 54 -45 7 -6 46 -38 87 -70 41 -33 77 -63 78 -67 2 -5 8 -8 13 -8 4 0
47 -29 94 -65 46 -36 89 -65 93 -65 5 0 17 -9 27 -20 10 -11 24 -20 32 -20 7
0 13 -4 13 -9 0 -5 9 -13 20 -16 11 -3 26 -12 32 -19 21 -20 286 -176 383
-225 50 -25 92 -49 93 -54 2 -4 8 -5 13 -1 5 3 9 0 9 -5 0 -6 4 -11 9 -11 5 0
62 -26 127 -57 66 -31 124 -58 129 -59 6 -1 33 -12 60 -25 28 -12 53 -23 58
-24 4 -2 9 -4 12 -5 3 -1 8 -3 13 -5 4 -1 16 -5 27 -10 85 -34 140 -55 146
-55 4 0 20 -5 36 -12 15 -6 30 -12 33 -13 3 -1 12 -4 20 -8 27 -11 225 -70
240 -72 8 -1 22 -5 30 -8 13 -5 48 -15 120 -34 8 -3 24 -6 35 -8 11 -2 20 -4
20 -5 0 -2 57 -16 105 -25 14 -3 36 -7 50 -11 14 -3 32 -7 40 -8 8 -2 26 -6
40 -9 14 -4 41 -9 60 -12 19 -3 49 -8 65 -11 29 -5 50 -8 110 -17 17 -3 55 -8
86 -11 31 -4 67 -9 80 -12 26 -5 120 -13 210 -18 30 -1 59 -5 65 -8 11 -7 640
-3 734 5 130 10 200 18 315 34 28 4 60 7 73 7 12 1 22 3 22 6 0 3 10 5 23 6
22 0 67 8 118 18 14 3 41 8 60 10 19 3 34 5 34 6 0 2 12 4 55 13 14 3 48 11
75 17 28 6 58 13 68 15 10 2 27 7 37 10 10 3 27 7 37 9 10 2 38 9 63 16 25 7
50 13 55 14 6 2 44 13 85 26 41 13 77 24 80 25 58 16 128 40 136 47 7 5 16 8
20 7 5 -1 23 3 39 10 93 38 152 60 165 63 8 2 17 6 20 10 3 4 15 9 25 11 19 4
37 11 163 69 26 12 49 22 52 23 9 2 253 124 305 153 90 49 170 96 175 101 3 3
25 17 49 30 25 13 50 28 55 32 6 5 60 41 120 80 60 39 115 76 122 82 32 29 44
37 51 37 5 0 26 16 48 35 22 19 43 35 46 35 3 0 17 9 30 21 13 12 51 42 84 67
33 26 65 51 71 57 6 5 37 33 69 60 121 103 330 306 449 436 32 35 74 80 92
101 19 20 34 39 34 43 0 4 8 15 18 24 18 16 157 189 197 245 11 15 34 47 51
70 92 123 294 443 294 465 0 6 5 11 10 11 6 0 10 6 10 14 0 7 7 19 15 26 9 7
13 15 11 18 -3 3 3 17 13 31 21 30 168 328 173 351 2 8 5 17 8 20 6 6 32 60
36 75 1 6 21 55 44 110 23 55 43 105 44 110 6 29 30 92 38 102 5 7 7 17 4 22
-4 5 -2 12 4 16 6 4 8 11 5 16 -4 5 -1 9 4 9 6 0 10 3 9 8 -1 4 6 31 16 60 10
29 19 58 20 65 1 7 10 39 20 72 10 33 20 71 23 84 2 14 7 29 10 34 3 6 7 20 9
31 2 12 7 35 12 53 6 17 8 34 4 37 -3 3 0 6 7 6 7 0 10 4 7 8 -3 5 1 33 9 63
8 30 16 68 19 84 2 17 5 30 6 30 1 0 4 16 6 35 10 74 12 85 14 85 2 0 4 9 5
20 1 11 6 38 9 60 18 100 29 196 30 252 1 24 4 43 7 43 3 0 6 6 6 13 1 6 4 57
8 112 4 55 8 144 10 198 1 53 5 100 8 104 4 3 1 13 -6 21 -8 11 -9 14 0 9 13
-8 12 30 -1 51 -4 6 -2 20 3 30 7 13 6 23 -2 32 -7 7 -7 10 -1 7 7 -4 10 6 10
27 -1 19 -4 32 -8 29 -11 -6 -10 5 2 27 7 13 7 21 0 25 -5 3 -10 11 -10 16 0
6 5 7 12 3 7 -5 8 -3 3 6 -4 7 -9 44 -11 84 -2 39 -6 100 -9 136 -3 36 -8 88
-9 115 -2 28 -7 70 -11 95 -4 25 -9 61 -10 80 -2 19 -4 36 -5 38 -1 1 -4 11
-5 22 -1 11 -3 21 -4 23 -3 3 -9 34 -15 77 -12 89 -17 116 -23 135 -4 11 -8
29 -9 40 -1 11 -5 29 -8 40 -17 62 -23 95 -18 99 3 4 1 6 -4 6 -5 0 -10 8 -11
18 -3 39 -15 87 -23 90 -5 2 -6 10 -3 18 3 8 1 20 -5 27 -5 6 -15 36 -21 65
-6 30 -16 63 -22 74 -10 18 -15 12 -48 -54 -59 -115 -84 -158 -93 -158 -4 0
-8 -6 -8 -12 0 -7 -13 -27 -28 -45 -15 -17 -38 -47 -52 -65 -38 -51 -280 -285
-280 -270 0 3 -7 -4 -16 -16 -8 -12 -20 -20 -25 -17 -5 4 -9 2 -9 -3 0 -7
-130 -100 -192 -137 -119 -71 -398 -214 -428 -220 -3 0 -48 -17 -100 -37 -83
-32 -122 -47 -140 -53 -3 -1 -12 -4 -20 -8 -26 -10 -241 -77 -264 -81 -11 -3
-36 -9 -53 -15 -18 -5 -33 -8 -33 -5 0 3 -8 0 -19 -5 -10 -6 -31 -13 -47 -15
-16 -3 -44 -10 -63 -15 -18 -6 -36 -10 -40 -9 -3 0 -8 -1 -11 -2 -10 -4 -48
-12 -115 -25 -22 -5 -47 -10 -55 -11 -8 -2 -35 -6 -60 -10 -25 -3 -47 -9 -50
-13 -3 -3 -16 -7 -30 -8 -14 -1 -45 -4 -70 -7 -25 -4 -63 -8 -85 -11 -22 -2
-40 -5 -40 -5 0 -3 -109 -20 -165 -26 -51 -4 -130 -13 -170 -18 -63 -8 -258
-23 -390 -31 -377 -21 -1234 -22 -1268 -1 -6 3 -13 2 -17 -4 -4 -6 -12 -7 -18
-3 -7 4 -46 8 -88 9 -41 0 -81 4 -87 8 -7 4 -12 2 -12 -6 0 -8 -3 -9 -8 -3 -4
6 -32 10 -62 10 -30 0 -67 3 -81 6 -15 4 -30 4 -35 0 -8 -5 -11 -107 -4 -136
1 -5 1 -14 0 -20 -7 -28 -5 -115 2 -115 5 0 6 -6 1 -12 -11 -19 -10 -138 2
-138 7 0 7 -3 0 -8 -6 -4 -10 -29 -10 -57 0 -27 4 -53 10 -57 7 -5 7 -8 0 -8
-5 0 -10 -25 -10 -55 0 -30 5 -55 10 -55 7 0 7 -3 0 -8 -6 -4 -10 -29 -10 -57
0 -27 4 -53 10 -57 7 -5 7 -8 0 -8 -11 0 -12 -100 -2 -117 4 -7 4 -14 -1 -17
-10 -6 -9 -127 1 -143 4 -6 4 -14 -1 -17 -10 -6 -9 -127 1 -143 4 -6 4 -14 -1
-17 -10 -6 -9 -127 1 -143 4 -6 4 -14 -1 -17 -6 -3 -7 -127 -2 -261 0 -5 -1
-32 -3 -58 -2 -26 1 -51 6 -54 5 -3 657 -6 1448 -6 792 0 1439 -4 1439 -8 0
-4 -4 -11 -10 -14 -5 -3 -10 -13 -10 -21 0 -8 -5 -20 -10 -27 -16 -18 -100
-169 -100 -179 0 -4 -4 -8 -10 -8 -5 0 -10 -7 -10 -15 0 -8 -4 -15 -10 -15 -5
0 -10 -5 -10 -11 0 -6 -14 -28 -30 -49 -16 -21 -30 -43 -30 -49 0 -6 -4 -11
-10 -11 -5 0 -10 -4 -10 -10 0 -5 -8 -18 -17 -28 -10 -11 -36 -43 -58 -72 -67
-87 -105 -130 -230 -255 -125 -125 -205 -199 -205 -191 0 3 -10 -5 -23 -17
-94 -90 -516 -362 -553 -356 -4 0 -10 -3 -13 -8 -3 -4 -26 -18 -51 -30 -70
-34 -184 -86 -190 -87 -3 -1 -18 -6 -35 -13 -55 -21 -70 -26 -75 -28 -3 -1
-21 -8 -40 -17 -19 -8 -52 -18 -72 -22 -21 -4 -38 -12 -38 -18 0 -6 -3 -9 -6
-6 -3 4 -20 2 -37 -3 -18 -6 -40 -12 -50 -14 -9 -2 -23 -7 -29 -11 -7 -5 -19
-9 -28 -10 -18 -3 -41 -8 -100 -24 -25 -7 -56 -14 -70 -17 -34 -7 -54 -11 -60
-13 -7 -3 -19 -5 -77 -14 -29 -5 -53 -11 -53 -15 0 -3 -19 -7 -43 -8 -53 -2
-123 -10 -145 -17 -17 -5 -170 -18 -229 -20 -18 0 -33 -5 -33 -10 0 -4 -6 -3
-13 3 -8 6 -17 8 -21 4 -11 -11 -368 -11 -390 0 -14 7 -16 6 -11 -4 6 -8 4
-10 -4 -5 -7 5 -38 10 -69 12 -31 3 -75 7 -97 9 -22 3 -60 8 -85 10 -47 6 -85
12 -85 15 0 1 -17 4 -39 6 -21 3 -65 11 -97 18 -32 8 -60 11 -63 8 -3 -3 -6 1
-6 8 0 7 -2 11 -6 8 -3 -3 -22 -2 -42 4 -41 10 -39 9 -102 28 -25 8 -47 14
-50 15 -3 1 -20 5 -37 9 -18 4 -33 11 -33 15 0 4 -8 7 -17 8 -25 2 -43 7 -87
26 -21 9 -42 17 -47 17 -37 0 -406 184 -537 266 -29 19 -56 34 -61 34 -5 0
-11 4 -13 8 -1 4 -39 32 -83 62 -44 30 -91 65 -105 77 -14 13 -28 23 -31 23
-3 0 -17 9 -30 21 -13 12 -41 35 -62 52 -117 96 -281 257 -412 407 -56 63
-175 220 -175 229 0 5 -3 11 -7 13 -12 5 -63 75 -63 86 0 6 -4 12 -9 14 -10 4
-156 247 -156 260 0 5 -6 12 -13 17 -8 5 -13 11 -13 15 0 3 -23 54 -51 113
-29 60 -52 110 -53 113 -1 3 -9 22 -18 44 -9 21 -17 45 -17 52 0 8 -4 14 -8
14 -4 0 -14 21 -21 47 -8 27 -16 53 -20 58 -13 24 -49 141 -44 147 2 5 -1 8
-6 8 -6 0 -10 3 -9 8 1 4 -4 25 -11 47 -7 22 -16 56 -21 75 -5 19 -16 64 -25
100 -10 36 -18 76 -19 90 -1 14 -5 30 -8 35 -5 9 -18 80 -24 128 -1 9 -3 18
-4 20 -1 1 -3 18 -5 37 -2 19 -4 36 -5 38 -1 1 -4 20 -5 42 -1 22 -4 41 -5 43
-1 1 -3 20 -4 42 -1 22 -5 46 -9 53 -5 7 -3 12 3 12 6 0 8 5 3 13 -4 6 -9 23
-10 37 -4 42 -3 442 2 485 2 22 7 72 10 110 9 96 13 130 15 130 2 0 4 16 5 36
1 20 6 50 10 65 4 16 9 38 11 49 1 11 5 31 8 45 3 14 8 39 11 55 3 17 11 48
17 70 5 22 12 48 14 59 2 10 11 44 20 75 10 31 18 61 19 66 0 6 6 23 13 38 7
16 12 34 12 42 0 7 9 34 20 59 11 26 20 50 21 54 3 12 20 56 30 74 5 10 9 23
9 30 0 7 11 34 25 59 13 26 21 49 18 53 -4 3 -1 6 5 6 7 0 12 5 12 11 0 15 82
181 97 197 7 8 11 17 8 22 -3 4 2 13 10 20 8 7 15 16 15 21 0 8 103 180 122
204 5 6 29 42 55 80 26 39 52 75 57 82 19 22 31 37 56 73 13 19 32 41 42 48
10 7 18 17 18 21 0 20 275 304 389 401 35 30 69 60 75 65 6 6 29 23 51 40 22
16 45 34 51 40 6 6 37 28 70 50 32 22 65 45 71 52 7 6 22 15 33 18 11 3 20 11
20 16 0 5 6 9 13 9 7 0 23 9 35 20 12 11 23 20 25 20 2 0 42 22 88 48 97 56
292 152 308 152 6 0 11 5 11 12 0 6 3 9 6 5 3 -3 29 4 58 17 28 13 76 31 106
41 30 9 59 21 64 25 5 5 15 6 22 3 8 -3 14 0 14 6 0 7 6 11 13 9 6 -1 29 4 50
11 21 7 46 14 55 16 9 2 17 4 17 5 0 1 7 3 15 5 84 21 141 35 161 39 13 2 40
7 59 11 19 3 42 7 50 9 8 1 29 5 45 9 17 4 55 9 85 12 83 8 132 15 141 21 5 3
9 0 9 -6 0 -6 5 -8 13 -3 6 4 52 8 100 9 48 1 91 4 94 7 3 4 14 2 24 -3 10 -6
20 -6 23 -2 3 5 18 7 33 6 25 -1 29 2 31 25 1 20 20 115 27 141 12 41 17 59
19 71 8 39 20 75 29 87 5 6 7 12 3 12 -3 0 0 16 8 35 8 19 13 35 11 35 -3 0 5
24 16 53 11 28 27 71 35 95 9 24 25 64 36 90 12 26 22 52 24 58 3 19 146 303
168 338 12 18 30 47 40 66 11 19 24 40 28 45 8 10 44 63 89 133 12 17 25 32
30 32 5 0 9 5 9 11 0 10 54 77 135 167 86 96 285 272 308 272 36 1 -28 19 -76
22 -31 2 -57 5 -57 8 0 3 -15 6 -32 6 -33 1 -125 9 -203 19 -56 7 -187 16
-272 18 -40 1 -73 4 -73 7 0 10 -525 8 -544 -2 -12 -7 -16 -7 -12 0 4 6 -2 10
-14 9 -11 -1 -20 -5 -20 -9 0 -5 -8 -4 -19 1 -10 6 -21 7 -25 3z"/>
<path d="M7379 10646 c-4 -5 -129 -18 -166 -19 -7 0 -13 -4 -13 -9 0 -5 -4 -6
-10 -3 -5 3 -27 1 -47 -4 -21 -6 -41 -10 -46 -11 -4 0 -21 -7 -37 -15 -16 -8
-32 -16 -35 -16 -20 -3 -48 -14 -83 -32 -22 -12 -61 -33 -86 -46 -25 -14 -46
-28 -46 -33 0 -4 -4 -8 -10 -8 -10 0 -37 -20 -72 -52 -10 -10 -21 -18 -24 -18
-9 0 -175 -170 -166 -170 4 0 3 -4 -3 -8 -19 -13 -91 -107 -125 -162 -19 -30
-37 -57 -40 -60 -3 -3 -10 -14 -16 -25 -6 -11 -26 -47 -44 -80 -18 -33 -39
-71 -46 -85 -26 -48 -96 -215 -97 -232 -1 -10 -5 -18 -9 -18 -4 0 -7 -3 -6 -7
0 -5 -1 -15 -4 -23 -4 -8 -9 -24 -14 -35 -4 -11 -8 -24 -9 -30 -1 -5 -3 -13
-5 -17 -1 -5 -3 -11 -5 -15 -1 -5 -4 -15 -8 -23 -6 -15 -29 -101 -29 -110 0
-3 -5 -16 -10 -30 -6 -14 -11 -34 -13 -45 -2 -11 -10 -47 -19 -80 -8 -33 -12
-63 -10 -66 2 -4 0 -9 -5 -11 -5 -1 -11 -21 -15 -43 -7 -46 -14 -80 -16 -80
-1 0 -3 -9 -4 -20 -2 -11 -6 -33 -10 -50 -3 -16 -9 -43 -11 -60 -3 -16 -8 -41
-10 -55 -12 -59 -15 -77 -21 -120 -4 -25 -8 -54 -10 -65 -1 -11 -3 -20 -4 -20
-1 0 -3 -9 -4 -20 -9 -69 -18 -134 -22 -160 -3 -16 -7 -43 -9 -60 -2 -16 -6
-52 -10 -80 -3 -27 -8 -66 -11 -85 -5 -32 -9 -76 -19 -190 -2 -25 -4 -45 -5
-45 -2 0 -8 -68 -11 -125 -1 -25 -4 -49 -7 -53 -4 -8 -12 -124 -15 -239 -1
-27 -4 -48 -7 -48 -3 0 -6 -33 -6 -73 -1 -39 -4 -112 -8 -162 -6 -97 -18 -358
-20 -440 0 -27 -5 -53 -11 -57 -7 -5 -7 -8 1 -8 12 0 12 -89 0 -108 -4 -7 -2
-12 4 -12 8 0 8 -6 0 -20 -7 -13 -7 -20 -1 -20 7 0 7 -9 1 -26 -7 -18 -7 -23
2 -18 7 5 8 3 3 -6 -12 -20 -13 -160 0 -160 7 0 7 -3 0 -8 -6 -4 -10 -29 -10
-57 0 -27 4 -53 10 -57 7 -5 7 -8 0 -8 -9 0 -10 -16 -6 -91 1 -12 12 -15 46
-15 25 1 45 -1 45 -4 0 -3 28 -6 63 -8 62 -3 122 -9 122 -11 0 -3 185 -11 348
-15 86 -3 161 -8 166 -11 5 -3 13 -1 16 5 5 8 12 7 22 -2 17 -13 20 -13 41 4
8 7 12 7 12 -1 0 -7 8 -8 25 -1 14 5 25 6 25 1 0 -4 7 -8 15 -8 8 0 15 5 15
11 0 7 3 7 8 1 4 -5 21 -10 37 -10 17 0 33 5 37 10 5 6 8 6 8 -1 0 -12 38 -13
58 -1 7 5 12 3 12 -3 0 -6 5 -8 11 -4 6 4 82 8 168 10 191 4 336 13 511 29 30
3 78 7 105 8 28 2 55 5 60 8 6 3 31 5 58 5 26 -1 47 2 47 5 0 4 8 6 18 6 18
-1 126 11 177 20 17 2 41 6 55 8 148 22 248 39 268 45 4 1 10 2 15 1 4 -1 28
4 55 10 26 6 57 13 70 15 31 6 63 12 92 18 52 12 85 17 90 15 3 -1 16 4 30 11
14 7 36 15 50 17 51 6 66 10 93 21 15 6 38 14 51 16 14 2 34 9 45 16 12 6 21
9 21 6 0 -3 33 7 73 20 39 14 77 27 82 28 15 4 47 17 83 33 18 8 37 11 42 8 6
-3 10 -1 10 4 0 6 7 11 15 11 8 0 15 4 15 8 0 5 6 9 13 9 12 0 119 45 147 62
8 5 52 28 98 52 45 23 82 45 82 49 0 4 11 11 25 14 14 4 25 11 25 16 0 6 5 10
10 10 6 0 32 15 59 33 46 32 63 45 100 77 9 8 37 32 63 52 25 21 65 58 89 84
24 26 51 54 59 63 74 79 200 281 200 320 0 6 4 11 9 11 5 0 12 18 16 40 4 22
10 40 14 40 8 0 10 10 14 55 1 14 5 25 8 25 4 0 10 21 14 48 5 26 10 54 12 62
2 8 5 47 7 85 2 39 5 70 6 70 5 0 6 46 0 50 -3 2 -6 31 -5 64 0 34 -4 61 -8
61 -5 0 -6 4 -3 9 6 10 -10 101 -24 136 -5 11 -14 41 -20 68 -7 26 -17 47 -23
47 -6 0 -7 3 -4 7 4 3 2 12 -4 20 -6 7 -8 13 -4 13 4 0 2 7 -5 15 -7 8 -9 15
-4 15 5 0 5 4 -1 8 -5 4 -19 25 -30 47 -30 61 -97 165 -107 165 -4 0 -8 6 -8
13 0 16 -152 174 -205 213 -22 16 -42 31 -45 34 -3 3 -27 19 -55 35 -27 15
-53 32 -56 37 -3 6 -9 9 -13 9 -3 -1 -23 6 -44 15 -20 10 -39 18 -42 19 -3 1
-16 6 -30 12 -124 52 -314 85 -485 85 -78 0 -250 -9 -250 -12 0 -2 -39 -10
-80 -15 -22 -3 -67 -12 -100 -20 -33 -9 -71 -18 -85 -21 -14 -3 -36 -8 -50
-11 -14 -3 -31 -6 -37 -6 -7 0 -13 -5 -13 -10 0 -6 -3 -8 -6 -4 -4 3 -22 0
-42 -9 -19 -8 -37 -13 -39 -10 -5 4 69 130 79 134 5 2 8 12 8 23 0 10 5 19 10
19 6 0 10 5 10 11 0 7 10 33 21 58 34 72 38 82 58 151 39 127 48 200 46 337
-2 115 -9 177 -22 218 -4 11 -8 25 -9 31 -13 73 -91 234 -162 333 -75 106
-278 295 -342 319 -8 3 -17 8 -20 12 -11 13 -148 78 -154 73 -3 -4 -6 -1 -6 5
0 7 -8 12 -18 12 -10 0 -22 3 -26 8 -4 4 -12 8 -17 8 -5 1 -10 2 -11 4 -2 1
-10 3 -18 5 -8 2 -37 11 -64 20 -27 9 -59 19 -70 21 -21 4 -46 9 -88 19 -33 8
-137 19 -175 20 -18 0 -33 5 -33 10 0 6 -4 4 -9 -3 -10 -17 -21 -17 -31 -3 -3
6 -9 9 -11 7z"/>
</g>
</svg>
