<?xml version="1.0" encoding="utf-8" standalone="yes"?> <svg width="2001" height="2001" viewBox="-2 -2 29 29" xmlns="http://www.w3.org/2000/svg" xmlns:xlink="http://www.w3.org/1999/xlink" shape-rendering="geometricPrecision" id="qr code"><rect id="qr background" fill-opacity="1" fill="rgb(0, 0, 0)" x="-2" y="-2" width="29" height="29" ry="3.6"></rect><path fill-opacity="1" fill="rgb(255, 160, 0)" id="qr pixels" d="M9.5,0.15000000000000002h0a0.35,0.35 0 0 1 0.35,0.35v0a0.35,0.35 0 0 1 -0.35,0.35h0a0.35,0.35 0 0 1 -0.35,-0.35v0a0.35,0.35 0 0 1 0.35,-0.35zM11.5,0.15000000000000002h0a0.35,0.35 0 0 1 0.35,0.35v0a0.35,0.35 0 0 1 -0.35,0.35h0a0.35,0.35 0 0 1 -0.35,-0.35v0a0.35,0.35 0 0 1 0.35,-0.35zM12.5,0.15000000000000002h0a0.35,0.35 0 0 1 0.35,0.35v0a0.35,0.35 0 0 1 -0.35,0.35h0a0.35,0.35 0 0 1 -0.35,-0.35v0a0.35,0.35 0 0 1 0.35,-0.35zM15.5,0.15000000000000002h0a0.35,0.35 0 0 1 0.35,0.35v0a0.35,0.35 0 0 1 -0.35,0.35h0a0.35,0.35 0 0 1 -0.35,-0.35v0a0.35,0.35 0 0 1 0.35,-0.35zM16.5,0.15000000000000002h0a0.35,0.35 0 0 1 0.35,0.35v0a0.35,0.35 0 0 1 -0.35,0.35h0a0.35,0.35 0 0 1 -0.35,-0.35v0a0.35,0.35 0 0 1 0.35,-0.35zM9.5,1.15h0a0.35,0.35 0 0 1 0.35,0.35v0a0.35,0.35 0 0 1 -0.35,0.35h0a0.35,0.35 0 0 1 -0.35,-0.35v0a0.35,0.35 0 0 1 0.35,-0.35zM11.5,1.15h0a0.35,0.35 0 0 1 0.35,0.35v0a0.35,0.35 0 0 1 -0.35,0.35h0a0.35,0.35 0 0 1 -0.35,-0.35v0a0.35,0.35 0 0 1 0.35,-0.35zM14.5,1.15h0a0.35,0.35 0 0 1 0.35,0.35v0a0.35,0.35 0 0 1 -0.35,0.35h0a0.35,0.35 0 0 1 -0.35,-0.35v0a0.35,0.35 0 0 1 0.35,-0.35zM15.5,1.15h0a0.35,0.35 0 0 1 0.35,0.35v0a0.35,0.35 0 0 1 -0.35,0.35h0a0.35,0.35 0 0 1 -0.35,-0.35v0a0.35,0.35 0 0 1 0.35,-0.35zM8.5,2.15h0a0.35,0.35 0 0 1 0.35,0.35v0a0.35,0.35 0 0 1 -0.35,0.35h0a0.35,0.35 0 0 1 -0.35,-0.35v0a0.35,0.35 0 0 1 0.35,-0.35zM12.5,2.15h0a0.35,0.35 0 0 1 0.35,0.35v0a0.35,0.35 0 0 1 -0.35,0.35h0a0.35,0.35 0 0 1 -0.35,-0.35v0a0.35,0.35 0 0 1 0.35,-0.35zM15.5,2.15h0a0.35,0.35 0 0 1 0.35,0.35v0a0.35,0.35 0 0 1 -0.35,0.35h0a0.35,0.35 0 0 1 -0.35,-0.35v0a0.35,0.35 0 0 1 0.35,-0.35zM16.5,2.15h0a0.35,0.35 0 0 1 0.35,0.35v0a0.35,0.35 0 0 1 -0.35,0.35h0a0.35,0.35 0 0 1 -0.35,-0.35v0a0.35,0.35 0 0 1 0.35,-0.35zM8.5,3.15h0a0.35,0.35 0 0 1 0.35,0.35v0a0.35,0.35 0 0 1 -0.35,0.35h0a0.35,0.35 0 0 1 -0.35,-0.35v0a0.35,0.35 0 0 1 0.35,-0.35zM9.5,3.15h0a0.35,0.35 0 0 1 0.35,0.35v0a0.35,0.35 0 0 1 -0.35,0.35h0a0.35,0.35 0 0 1 -0.35,-0.35v0a0.35,0.35 0 0 1 0.35,-0.35zM10.5,3.15h0a0.35,0.35 0 0 1 0.35,0.35v0a0.35,0.35 0 0 1 -0.35,0.35h0a0.35,0.35 0 0 1 -0.35,-0.35v0a0.35,0.35 0 0 1 0.35,-0.35zM12.5,3.15h0a0.35,0.35 0 0 1 0.35,0.35v0a0.35,0.35 0 0 1 -0.35,0.35h0a0.35,0.35 0 0 1 -0.35,-0.35v0a0.35,0.35 0 0 1 0.35,-0.35zM16.5,3.15h0a0.35,0.35 0 0 1 0.35,0.35v0a0.35,0.35 0 0 1 -0.35,0.35h0a0.35,0.35 0 0 1 -0.35,-0.35v0a0.35,0.35 0 0 1 0.35,-0.35zM9.5,4.15h0a0.35,0.35 0 0 1 0.35,0.35v0a0.35,0.35 0 0 1 -0.35,0.35h0a0.35,0.35 0 0 1 -0.35,-0.35v0a0.35,0.35 0 0 1 0.35,-0.35zM11.5,4.15h0a0.35,0.35 0 0 1 0.35,0.35v0a0.35,0.35 0 0 1 -0.35,0.35h0a0.35,0.35 0 0 1 -0.35,-0.35v0a0.35,0.35 0 0 1 0.35,-0.35zM12.5,4.15h0a0.35,0.35 0 0 1 0.35,0.35v0a0.35,0.35 0 0 1 -0.35,0.35h0a0.35,0.35 0 0 1 -0.35,-0.35v0a0.35,0.35 0 0 1 0.35,-0.35zM13.5,4.15h0a0.35,0.35 0 0 1 0.35,0.35v0a0.35,0.35 0 0 1 -0.35,0.35h0a0.35,0.35 0 0 1 -0.35,-0.35v0a0.35,0.35 0 0 1 0.35,-0.35zM15.5,4.15h0a0.35,0.35 0 0 1 0.35,0.35v0a0.35,0.35 0 0 1 -0.35,0.35h0a0.35,0.35 0 0 1 -0.35,-0.35v0a0.35,0.35 0 0 1 0.35,-0.35zM11.5,5.15h0a0.35,0.35 0 0 1 0.35,0.35v0a0.35,0.35 0 0 1 -0.35,0.35h0a0.35,0.35 0 0 1 -0.35,-0.35v0a0.35,0.35 0 0 1 0.35,-0.35zM12.5,5.15h0a0.35,0.35 0 0 1 0.35,0.35v0a0.35,0.35 0 0 1 -0.35,0.35h0a0.35,0.35 0 0 1 -0.35,-0.35v0a0.35,0.35 0 0 1 0.35,-0.35zM13.5,5.15h0a0.35,0.35 0 0 1 0.35,0.35v0a0.35,0.35 0 0 1 -0.35,0.35h0a0.35,0.35 0 0 1 -0.35,-0.35v0a0.35,0.35 0 0 1 0.35,-0.35zM14.5,5.15h0a0.35,0.35 0 0 1 0.35,0.35v0a0.35,0.35 0 0 1 -0.35,0.35h0a0.35,0.35 0 0 1 -0.35,-0.35v0a0.35,0.35 0 0 1 0.35,-0.35zM15.5,5.15h0a0.35,0.35 0 0 1 0.35,0.35v0a0.35,0.35 0 0 1 -0.35,0.35h0a0.35,0.35 0 0 1 -0.35,-0.35v0a0.35,0.35 0 0 1 0.35,-0.35zM9.5,6.15h0a0.35,0.35 0 0 1 0.35,0.35v0a0.35,0.35 0 0 1 -0.35,0.35h0a0.35,0.35 0 0 1 -0.35,-0.35v0a0.35,0.35 0 0 1 0.35,-0.35zM11.5,6.15h0a0.35,0.35 0 0 1 0.35,0.35v0a0.35,0.35 0 0 1 -0.35,0.35h0a0.35,0.35 0 0 1 -0.35,-0.35v0a0.35,0.35 0 0 1 0.35,-0.35zM13.5,6.15h0a0.35,0.35 0 0 1 0.35,0.35v0a0.35,0.35 0 0 1 -0.35,0.35h0a0.35,0.35 0 0 1 -0.35,-0.35v0a0.35,0.35 0 0 1 0.35,-0.35zM15.5,6.15h0a0.35,0.35 0 0 1 0.35,0.35v0a0.35,0.35 0 0 1 -0.35,0.35h0a0.35,0.35 0 0 1 -0.35,-0.35v0a0.35,0.35 0 0 1 0.35,-0.35zM10.5,7.15h0a0.35,0.35 0 0 1 0.35,0.35v0a0.35,0.35 0 0 1 -0.35,0.35h0a0.35,0.35 0 0 1 -0.35,-0.35v0a0.35,0.35 0 0 1 0.35,-0.35zM11.5,7.15h0a0.35,0.35 0 0 1 0.35,0.35v0a0.35,0.35 0 0 1 -0.35,0.35h0a0.35,0.35 0 0 1 -0.35,-0.35v0a0.35,0.35 0 0 1 0.35,-0.35zM13.5,7.15h0a0.35,0.35 0 0 1 0.35,0.35v0a0.35,0.35 0 0 1 -0.35,0.35h0a0.35,0.35 0 0 1 -0.35,-0.35v0a0.35,0.35 0 0 1 0.35,-0.35zM16.5,7.15h0a0.35,0.35 0 0 1 0.35,0.35v0a0.35,0.35 0 0 1 -0.35,0.35h0a0.35,0.35 0 0 1 -0.35,-0.35v0a0.35,0.35 0 0 1 0.35,-0.35zM3.5,8.15h0a0.35,0.35 0 0 1 0.35,0.35v0a0.35,0.35 0 0 1 -0.35,0.35h0a0.35,0.35 0 0 1 -0.35,-0.35v0a0.35,0.35 0 0 1 0.35,-0.35zM4.5,8.15h0a0.35,0.35 0 0 1 0.35,0.35v0a0.35,0.35 0 0 1 -0.35,0.35h0a0.35,0.35 0 0 1 -0.35,-0.35v0a0.35,0.35 0 0 1 0.35,-0.35zM7.5,8.15h0a0.35,0.35 0 0 1 0.35,0.35v0a0.35,0.35 0 0 1 -0.35,0.35h0a0.35,0.35 0 0 1 -0.35,-0.35v0a0.35,0.35 0 0 1 0.35,-0.35zM10.5,8.15h0a0.35,0.35 0 0 1 0.35,0.35v0a0.35,0.35 0 0 1 -0.35,0.35h0a0.35,0.35 0 0 1 -0.35,-0.35v0a0.35,0.35 0 0 1 0.35,-0.35zM12.5,8.15h0a0.35,0.35 0 0 1 0.35,0.35v0a0.35,0.35 0 0 1 -0.35,0.35h0a0.35,0.35 0 0 1 -0.35,-0.35v0a0.35,0.35 0 0 1 0.35,-0.35zM13.5,8.15h0a0.35,0.35 0 0 1 0.35,0.35v0a0.35,0.35 0 0 1 -0.35,0.35h0a0.35,0.35 0 0 1 -0.35,-0.35v0a0.35,0.35 0 0 1 0.35,-0.35zM14.5,8.15h0a0.35,0.35 0 0 1 0.35,0.35v0a0.35,0.35 0 0 1 -0.35,0.35h0a0.35,0.35 0 0 1 -0.35,-0.35v0a0.35,0.35 0 0 1 0.35,-0.35zM16.5,8.15h0a0.35,0.35 0 0 1 0.35,0.35v0a0.35,0.35 0 0 1 -0.35,0.35h0a0.35,0.35 0 0 1 -0.35,-0.35v0a0.35,0.35 0 0 1 0.35,-0.35zM21.5,8.15h0a0.35,0.35 0 0 1 0.35,0.35v0a0.35,0.35 0 0 1 -0.35,0.35h0a0.35,0.35 0 0 1 -0.35,-0.35v0a0.35,0.35 0 0 1 0.35,-0.35zM22.5,8.15h0a0.35,0.35 0 0 1 0.35,0.35v0a0.35,0.35 0 0 1 -0.35,0.35h0a0.35,0.35 0 0 1 -0.35,-0.35v0a0.35,0.35 0 0 1 0.35,-0.35zM2.5,9.15h0a0.35,0.35 0 0 1 0.35,0.35v0a0.35,0.35 0 0 1 -0.35,0.35h0a0.35,0.35 0 0 1 -0.35,-0.35v0a0.35,0.35 0 0 1 0.35,-0.35zM6.5,9.15h0a0.35,0.35 0 0 1 0.35,0.35v0a0.35,0.35 0 0 1 -0.35,0.35h0a0.35,0.35 0 0 1 -0.35,-0.35v0a0.35,0.35 0 0 1 0.35,-0.35zM9.5,9.15h0a0.35,0.35 0 0 1 0.35,0.35v0a0.35,0.35 0 0 1 -0.35,0.35h0a0.35,0.35 0 0 1 -0.35,-0.35v0a0.35,0.35 0 0 1 0.35,-0.35zM10.5,9.15h0a0.35,0.35 0 0 1 0.35,0.35v0a0.35,0.35 0 0 1 -0.35,0.35h0a0.35,0.35 0 0 1 -0.35,-0.35v0a0.35,0.35 0 0 1 0.35,-0.35zM13.5,9.15h0a0.35,0.35 0 0 1 0.35,0.35v0a0.35,0.35 0 0 1 -0.35,0.35h0a0.35,0.35 0 0 1 -0.35,-0.35v0a0.35,0.35 0 0 1 0.35,-0.35zM17.5,9.15h0a0.35,0.35 0 0 1 0.35,0.35v0a0.35,0.35 0 0 1 -0.35,0.35h0a0.35,0.35 0 0 1 -0.35,-0.35v0a0.35,0.35 0 0 1 0.35,-0.35zM20.5,9.15h0a0.35,0.35 0 0 1 0.35,0.35v0a0.35,0.35 0 0 1 -0.35,0.35h0a0.35,0.35 0 0 1 -0.35,-0.35v0a0.35,0.35 0 0 1 0.35,-0.35zM22.5,9.15h0a0.35,0.35 0 0 1 0.35,0.35v0a0.35,0.35 0 0 1 -0.35,0.35h0a0.35,0.35 0 0 1 -0.35,-0.35v0a0.35,0.35 0 0 1 0.35,-0.35zM0.5,10.15h0a0.35,0.35 0 0 1 0.35,0.35v0a0.35,0.35 0 0 1 -0.35,0.35h0a0.35,0.35 0 0 1 -0.35,-0.35v0a0.35,0.35 0 0 1 0.35,-0.35zM1.5,10.15h0a0.35,0.35 0 0 1 0.35,0.35v0a0.35,0.35 0 0 1 -0.35,0.35h0a0.35,0.35 0 0 1 -0.35,-0.35v0a0.35,0.35 0 0 1 0.35,-0.35zM2.5,10.15h0a0.35,0.35 0 0 1 0.35,0.35v0a0.35,0.35 0 0 1 -0.35,0.35h0a0.35,0.35 0 0 1 -0.35,-0.35v0a0.35,0.35 0 0 1 0.35,-0.35zM3.5,10.15h0a0.35,0.35 0 0 1 0.35,0.35v0a0.35,0.35 0 0 1 -0.35,0.35h0a0.35,0.35 0 0 1 -0.35,-0.35v0a0.35,0.35 0 0 1 0.35,-0.35zM4.5,10.15h0a0.35,0.35 0 0 1 0.35,0.35v0a0.35,0.35 0 0 1 -0.35,0.35h0a0.35,0.35 0 0 1 -0.35,-0.35v0a0.35,0.35 0 0 1 0.35,-0.35zM5.5,10.15h0a0.35,0.35 0 0 1 0.35,0.35v0a0.35,0.35 0 0 1 -0.35,0.35h0a0.35,0.35 0 0 1 -0.35,-0.35v0a0.35,0.35 0 0 1 0.35,-0.35zM7.5,10.15h0a0.35,0.35 0 0 1 0.35,0.35v0a0.35,0.35 0 0 1 -0.35,0.35h0a0.35,0.35 0 0 1 -0.35,-0.35v0a0.35,0.35 0 0 1 0.35,-0.35zM13.5,10.15h0a0.35,0.35 0 0 1 0.35,0.35v0a0.35,0.35 0 0 1 -0.35,0.35h0a0.35,0.35 0 0 1 -0.35,-0.35v0a0.35,0.35 0 0 1 0.35,-0.35zM16.5,10.15h0a0.35,0.35 0 0 1 0.35,0.35v0a0.35,0.35 0 0 1 -0.35,0.35h0a0.35,0.35 0 0 1 -0.35,-0.35v0a0.35,0.35 0 0 1 0.35,-0.35zM19.5,10.15h0a0.35,0.35 0 0 1 0.35,0.35v0a0.35,0.35 0 0 1 -0.35,0.35h0a0.35,0.35 0 0 1 -0.35,-0.35v0a0.35,0.35 0 0 1 0.35,-0.35zM20.5,10.15h0a0.35,0.35 0 0 1 0.35,0.35v0a0.35,0.35 0 0 1 -0.35,0.35h0a0.35,0.35 0 0 1 -0.35,-0.35v0a0.35,0.35 0 0 1 0.35,-0.35zM23.5,10.15h0a0.35,0.35 0 0 1 0.35,0.35v0a0.35,0.35 0 0 1 -0.35,0.35h0a0.35,0.35 0 0 1 -0.35,-0.35v0a0.35,0.35 0 0 1 0.35,-0.35zM3.5,11.15h0a0.35,0.35 0 0 1 0.35,0.35v0a0.35,0.35 0 0 1 -0.35,0.35h0a0.35,0.35 0 0 1 -0.35,-0.35v0a0.35,0.35 0 0 1 0.35,-0.35zM5.5,11.15h0a0.35,0.35 0 0 1 0.35,0.35v0a0.35,0.35 0 0 1 -0.35,0.35h0a0.35,0.35 0 0 1 -0.35,-0.35v0a0.35,0.35 0 0 1 0.35,-0.35zM6.5,11.15h0a0.35,0.35 0 0 1 0.35,0.35v0a0.35,0.35 0 0 1 -0.35,0.35h0a0.35,0.35 0 0 1 -0.35,-0.35v0a0.35,0.35 0 0 1 0.35,-0.35zM7.5,11.15h0a0.35,0.35 0 0 1 0.35,0.35v0a0.35,0.35 0 0 1 -0.35,0.35h0a0.35,0.35 0 0 1 -0.35,-0.35v0a0.35,0.35 0 0 1 0.35,-0.35zM8.5,11.15h0a0.35,0.35 0 0 1 0.35,0.35v0a0.35,0.35 0 0 1 -0.35,0.35h0a0.35,0.35 0 0 1 -0.35,-0.35v0a0.35,0.35 0 0 1 0.35,-0.35zM9.5,11.15h0a0.35,0.35 0 0 1 0.35,0.35v0a0.35,0.35 0 0 1 -0.35,0.35h0a0.35,0.35 0 0 1 -0.35,-0.35v0a0.35,0.35 0 0 1 0.35,-0.35zM11.5,11.15h0a0.35,0.35 0 0 1 0.35,0.35v0a0.35,0.35 0 0 1 -0.35,0.35h0a0.35,0.35 0 0 1 -0.35,-0.35v0a0.35,0.35 0 0 1 0.35,-0.35zM12.5,11.15h0a0.35,0.35 0 0 1 0.35,0.35v0a0.35,0.35 0 0 1 -0.35,0.35h0a0.35,0.35 0 0 1 -0.35,-0.35v0a0.35,0.35 0 0 1 0.35,-0.35zM13.5,11.15h0a0.35,0.35 0 0 1 0.35,0.35v0a0.35,0.35 0 0 1 -0.35,0.35h0a0.35,0.35 0 0 1 -0.35,-0.35v0a0.35,0.35 0 0 1 0.35,-0.35zM14.5,11.15h0a0.35,0.35 0 0 1 0.35,0.35v0a0.35,0.35 0 0 1 -0.35,0.35h0a0.35,0.35 0 0 1 -0.35,-0.35v0a0.35,0.35 0 0 1 0.35,-0.35zM15.5,11.15h0a0.35,0.35 0 0 1 0.35,0.35v0a0.35,0.35 0 0 1 -0.35,0.35h0a0.35,0.35 0 0 1 -0.35,-0.35v0a0.35,0.35 0 0 1 0.35,-0.35zM18.5,11.15h0a0.35,0.35 0 0 1 0.35,0.35v0a0.35,0.35 0 0 1 -0.35,0.35h0a0.35,0.35 0 0 1 -0.35,-0.35v0a0.35,0.35 0 0 1 0.35,-0.35zM20.5,11.15h0a0.35,0.35 0 0 1 0.35,0.35v0a0.35,0.35 0 0 1 -0.35,0.35h0a0.35,0.35 0 0 1 -0.35,-0.35v0a0.35,0.35 0 0 1 0.35,-0.35zM22.5,11.15h0a0.35,0.35 0 0 1 0.35,0.35v0a0.35,0.35 0 0 1 -0.35,0.35h0a0.35,0.35 0 0 1 -0.35,-0.35v0a0.35,0.35 0 0 1 0.35,-0.35zM23.5,11.15h0a0.35,0.35 0 0 1 0.35,0.35v0a0.35,0.35 0 0 1 -0.35,0.35h0a0.35,0.35 0 0 1 -0.35,-0.35v0a0.35,0.35 0 0 1 0.35,-0.35zM24.5,11.15h0a0.35,0.35 0 0 1 0.35,0.35v0a0.35,0.35 0 0 1 -0.35,0.35h0a0.35,0.35 0 0 1 -0.35,-0.35v0a0.35,0.35 0 0 1 0.35,-0.35zM0.5,12.15h0a0.35,0.35 0 0 1 0.35,0.35v0a0.35,0.35 0 0 1 -0.35,0.35h0a0.35,0.35 0 0 1 -0.35,-0.35v0a0.35,0.35 0 0 1 0.35,-0.35zM1.5,12.15h0a0.35,0.35 0 0 1 0.35,0.35v0a0.35,0.35 0 0 1 -0.35,0.35h0a0.35,0.35 0 0 1 -0.35,-0.35v0a0.35,0.35 0 0 1 0.35,-0.35zM2.5,12.15h0a0.35,0.35 0 0 1 0.35,0.35v0a0.35,0.35 0 0 1 -0.35,0.35h0a0.35,0.35 0 0 1 -0.35,-0.35v0a0.35,0.35 0 0 1 0.35,-0.35zM3.5,12.15h0a0.35,0.35 0 0 1 0.35,0.35v0a0.35,0.35 0 0 1 -0.35,0.35h0a0.35,0.35 0 0 1 -0.35,-0.35v0a0.35,0.35 0 0 1 0.35,-0.35zM5.5,12.15h0a0.35,0.35 0 0 1 0.35,0.35v0a0.35,0.35 0 0 1 -0.35,0.35h0a0.35,0.35 0 0 1 -0.35,-0.35v0a0.35,0.35 0 0 1 0.35,-0.35zM8.5,12.15h0a0.35,0.35 0 0 1 0.35,0.35v0a0.35,0.35 0 0 1 -0.35,0.35h0a0.35,0.35 0 0 1 -0.35,-0.35v0a0.35,0.35 0 0 1 0.35,-0.35zM11.5,12.15h0a0.35,0.35 0 0 1 0.35,0.35v0a0.35,0.35 0 0 1 -0.35,0.35h0a0.35,0.35 0 0 1 -0.35,-0.35v0a0.35,0.35 0 0 1 0.35,-0.35zM13.5,12.15h0a0.35,0.35 0 0 1 0.35,0.35v0a0.35,0.35 0 0 1 -0.35,0.35h0a0.35,0.35 0 0 1 -0.35,-0.35v0a0.35,0.35 0 0 1 0.35,-0.35zM14.5,12.15h0a0.35,0.35 0 0 1 0.35,0.35v0a0.35,0.35 0 0 1 -0.35,0.35h0a0.35,0.35 0 0 1 -0.35,-0.35v0a0.35,0.35 0 0 1 0.35,-0.35zM16.5,12.15h0a0.35,0.35 0 0 1 0.35,0.35v0a0.35,0.35 0 0 1 -0.35,0.35h0a0.35,0.35 0 0 1 -0.35,-0.35v0a0.35,0.35 0 0 1 0.35,-0.35zM17.5,12.15h0a0.35,0.35 0 0 1 0.35,0.35v0a0.35,0.35 0 0 1 -0.35,0.35h0a0.35,0.35 0 0 1 -0.35,-0.35v0a0.35,0.35 0 0 1 0.35,-0.35zM20.5,12.15h0a0.35,0.35 0 0 1 0.35,0.35v0a0.35,0.35 0 0 1 -0.35,0.35h0a0.35,0.35 0 0 1 -0.35,-0.35v0a0.35,0.35 0 0 1 0.35,-0.35zM21.5,12.15h0a0.35,0.35 0 0 1 0.35,0.35v0a0.35,0.35 0 0 1 -0.35,0.35h0a0.35,0.35 0 0 1 -0.35,-0.35v0a0.35,0.35 0 0 1 0.35,-0.35zM22.5,12.15h0a0.35,0.35 0 0 1 0.35,0.35v0a0.35,0.35 0 0 1 -0.35,0.35h0a0.35,0.35 0 0 1 -0.35,-0.35v0a0.35,0.35 0 0 1 0.35,-0.35zM23.5,12.15h0a0.35,0.35 0 0 1 0.35,0.35v0a0.35,0.35 0 0 1 -0.35,0.35h0a0.35,0.35 0 0 1 -0.35,-0.35v0a0.35,0.35 0 0 1 0.35,-0.35zM0.5,13.15h0a0.35,0.35 0 0 1 0.35,0.35v0a0.35,0.35 0 0 1 -0.35,0.35h0a0.35,0.35 0 0 1 -0.35,-0.35v0a0.35,0.35 0 0 1 0.35,-0.35zM1.5,13.15h0a0.35,0.35 0 0 1 0.35,0.35v0a0.35,0.35 0 0 1 -0.35,0.35h0a0.35,0.35 0 0 1 -0.35,-0.35v0a0.35,0.35 0 0 1 0.35,-0.35zM3.5,13.15h0a0.35,0.35 0 0 1 0.35,0.35v0a0.35,0.35 0 0 1 -0.35,0.35h0a0.35,0.35 0 0 1 -0.35,-0.35v0a0.35,0.35 0 0 1 0.35,-0.35zM4.5,13.15h0a0.35,0.35 0 0 1 0.35,0.35v0a0.35,0.35 0 0 1 -0.35,0.35h0a0.35,0.35 0 0 1 -0.35,-0.35v0a0.35,0.35 0 0 1 0.35,-0.35zM5.5,13.15h0a0.35,0.35 0 0 1 0.35,0.35v0a0.35,0.35 0 0 1 -0.35,0.35h0a0.35,0.35 0 0 1 -0.35,-0.35v0a0.35,0.35 0 0 1 0.35,-0.35zM6.5,13.15h0a0.35,0.35 0 0 1 0.35,0.35v0a0.35,0.35 0 0 1 -0.35,0.35h0a0.35,0.35 0 0 1 -0.35,-0.35v0a0.35,0.35 0 0 1 0.35,-0.35zM8.5,13.15h0a0.35,0.35 0 0 1 0.35,0.35v0a0.35,0.35 0 0 1 -0.35,0.35h0a0.35,0.35 0 0 1 -0.35,-0.35v0a0.35,0.35 0 0 1 0.35,-0.35zM9.5,13.15h0a0.35,0.35 0 0 1 0.35,0.35v0a0.35,0.35 0 0 1 -0.35,0.35h0a0.35,0.35 0 0 1 -0.35,-0.35v0a0.35,0.35 0 0 1 0.35,-0.35zM13.5,13.15h0a0.35,0.35 0 0 1 0.35,0.35v0a0.35,0.35 0 0 1 -0.35,0.35h0a0.35,0.35 0 0 1 -0.35,-0.35v0a0.35,0.35 0 0 1 0.35,-0.35zM17.5,13.15h0a0.35,0.35 0 0 1 0.35,0.35v0a0.35,0.35 0 0 1 -0.35,0.35h0a0.35,0.35 0 0 1 -0.35,-0.35v0a0.35,0.35 0 0 1 0.35,-0.35zM20.5,13.15h0a0.35,0.35 0 0 1 0.35,0.35v0a0.35,0.35 0 0 1 -0.35,0.35h0a0.35,0.35 0 0 1 -0.35,-0.35v0a0.35,0.35 0 0 1 0.35,-0.35zM21.5,13.15h0a0.35,0.35 0 0 1 0.35,0.35v0a0.35,0.35 0 0 1 -0.35,0.35h0a0.35,0.35 0 0 1 -0.35,-0.35v0a0.35,0.35 0 0 1 0.35,-0.35zM22.5,13.15h0a0.35,0.35 0 0 1 0.35,0.35v0a0.35,0.35 0 0 1 -0.35,0.35h0a0.35,0.35 0 0 1 -0.35,-0.35v0a0.35,0.35 0 0 1 0.35,-0.35zM3.5,14.15h0a0.35,0.35 0 0 1 0.35,0.35v0a0.35,0.35 0 0 1 -0.35,0.35h0a0.35,0.35 0 0 1 -0.35,-0.35v0a0.35,0.35 0 0 1 0.35,-0.35zM5.5,14.15h0a0.35,0.35 0 0 1 0.35,0.35v0a0.35,0.35 0 0 1 -0.35,0.35h0a0.35,0.35 0 0 1 -0.35,-0.35v0a0.35,0.35 0 0 1 0.35,-0.35zM8.5,14.15h0a0.35,0.35 0 0 1 0.35,0.35v0a0.35,0.35 0 0 1 -0.35,0.35h0a0.35,0.35 0 0 1 -0.35,-0.35v0a0.35,0.35 0 0 1 0.35,-0.35zM14.5,14.15h0a0.35,0.35 0 0 1 0.35,0.35v0a0.35,0.35 0 0 1 -0.35,0.35h0a0.35,0.35 0 0 1 -0.35,-0.35v0a0.35,0.35 0 0 1 0.35,-0.35zM17.5,14.15h0a0.35,0.35 0 0 1 0.35,0.35v0a0.35,0.35 0 0 1 -0.35,0.35h0a0.35,0.35 0 0 1 -0.35,-0.35v0a0.35,0.35 0 0 1 0.35,-0.35zM18.5,14.15h0a0.35,0.35 0 0 1 0.35,0.35v0a0.35,0.35 0 0 1 -0.35,0.35h0a0.35,0.35 0 0 1 -0.35,-0.35v0a0.35,0.35 0 0 1 0.35,-0.35zM19.5,14.15h0a0.35,0.35 0 0 1 0.35,0.35v0a0.35,0.35 0 0 1 -0.35,0.35h0a0.35,0.35 0 0 1 -0.35,-0.35v0a0.35,0.35 0 0 1 0.35,-0.35zM20.5,14.15h0a0.35,0.35 0 0 1 0.35,0.35v0a0.35,0.35 0 0 1 -0.35,0.35h0a0.35,0.35 0 0 1 -0.35,-0.35v0a0.35,0.35 0 0 1 0.35,-0.35zM23.5,14.15h0a0.35,0.35 0 0 1 0.35,0.35v0a0.35,0.35 0 0 1 -0.35,0.35h0a0.35,0.35 0 0 1 -0.35,-0.35v0a0.35,0.35 0 0 1 0.35,-0.35zM0.5,15.15h0a0.35,0.35 0 0 1 0.35,0.35v0a0.35,0.35 0 0 1 -0.35,0.35h0a0.35,0.35 0 0 1 -0.35,-0.35v0a0.35,0.35 0 0 1 0.35,-0.35zM1.5,15.15h0a0.35,0.35 0 0 1 0.35,0.35v0a0.35,0.35 0 0 1 -0.35,0.35h0a0.35,0.35 0 0 1 -0.35,-0.35v0a0.35,0.35 0 0 1 0.35,-0.35zM3.5,15.15h0a0.35,0.35 0 0 1 0.35,0.35v0a0.35,0.35 0 0 1 -0.35,0.35h0a0.35,0.35 0 0 1 -0.35,-0.35v0a0.35,0.35 0 0 1 0.35,-0.35zM5.5,15.15h0a0.35,0.35 0 0 1 0.35,0.35v0a0.35,0.35 0 0 1 -0.35,0.35h0a0.35,0.35 0 0 1 -0.35,-0.35v0a0.35,0.35 0 0 1 0.35,-0.35zM6.5,15.15h0a0.35,0.35 0 0 1 0.35,0.35v0a0.35,0.35 0 0 1 -0.35,0.35h0a0.35,0.35 0 0 1 -0.35,-0.35v0a0.35,0.35 0 0 1 0.35,-0.35zM7.5,15.15h0a0.35,0.35 0 0 1 0.35,0.35v0a0.35,0.35 0 0 1 -0.35,0.35h0a0.35,0.35 0 0 1 -0.35,-0.35v0a0.35,0.35 0 0 1 0.35,-0.35zM8.5,15.15h0a0.35,0.35 0 0 1 0.35,0.35v0a0.35,0.35 0 0 1 -0.35,0.35h0a0.35,0.35 0 0 1 -0.35,-0.35v0a0.35,0.35 0 0 1 0.35,-0.35zM10.5,15.15h0a0.35,0.35 0 0 1 0.35,0.35v0a0.35,0.35 0 0 1 -0.35,0.35h0a0.35,0.35 0 0 1 -0.35,-0.35v0a0.35,0.35 0 0 1 0.35,-0.35zM13.5,15.15h0a0.35,0.35 0 0 1 0.35,0.35v0a0.35,0.35 0 0 1 -0.35,0.35h0a0.35,0.35 0 0 1 -0.35,-0.35v0a0.35,0.35 0 0 1 0.35,-0.35zM14.5,15.15h0a0.35,0.35 0 0 1 0.35,0.35v0a0.35,0.35 0 0 1 -0.35,0.35h0a0.35,0.35 0 0 1 -0.35,-0.35v0a0.35,0.35 0 0 1 0.35,-0.35zM17.5,15.15h0a0.35,0.35 0 0 1 0.35,0.35v0a0.35,0.35 0 0 1 -0.35,0.35h0a0.35,0.35 0 0 1 -0.35,-0.35v0a0.35,0.35 0 0 1 0.35,-0.35zM18.5,15.15h0a0.35,0.35 0 0 1 0.35,0.35v0a0.35,0.35 0 0 1 -0.35,0.35h0a0.35,0.35 0 0 1 -0.35,-0.35v0a0.35,0.35 0 0 1 0.35,-0.35zM22.5,15.15h0a0.35,0.35 0 0 1 0.35,0.35v0a0.35,0.35 0 0 1 -0.35,0.35h0a0.35,0.35 0 0 1 -0.35,-0.35v0a0.35,0.35 0 0 1 0.35,-0.35zM23.5,15.15h0a0.35,0.35 0 0 1 0.35,0.35v0a0.35,0.35 0 0 1 -0.35,0.35h0a0.35,0.35 0 0 1 -0.35,-0.35v0a0.35,0.35 0 0 1 0.35,-0.35zM24.5,15.15h0a0.35,0.35 0 0 1 0.35,0.35v0a0.35,0.35 0 0 1 -0.35,0.35h0a0.35,0.35 0 0 1 -0.35,-0.35v0a0.35,0.35 0 0 1 0.35,-0.35zM5.5,16.15h0a0.35,0.35 0 0 1 0.35,0.35v0a0.35,0.35 0 0 1 -0.35,0.35h0a0.35,0.35 0 0 1 -0.35,-0.35v0a0.35,0.35 0 0 1 0.35,-0.35zM8.5,16.15h0a0.35,0.35 0 0 1 0.35,0.35v0a0.35,0.35 0 0 1 -0.35,0.35h0a0.35,0.35 0 0 1 -0.35,-0.35v0a0.35,0.35 0 0 1 0.35,-0.35zM11.5,16.15h0a0.35,0.35 0 0 1 0.35,0.35v0a0.35,0.35 0 0 1 -0.35,0.35h0a0.35,0.35 0 0 1 -0.35,-0.35v0a0.35,0.35 0 0 1 0.35,-0.35zM13.5,16.15h0a0.35,0.35 0 0 1 0.35,0.35v0a0.35,0.35 0 0 1 -0.35,0.35h0a0.35,0.35 0 0 1 -0.35,-0.35v0a0.35,0.35 0 0 1 0.35,-0.35zM14.5,16.15h0a0.35,0.35 0 0 1 0.35,0.35v0a0.35,0.35 0 0 1 -0.35,0.35h0a0.35,0.35 0 0 1 -0.35,-0.35v0a0.35,0.35 0 0 1 0.35,-0.35zM15.5,16.15h0a0.35,0.35 0 0 1 0.35,0.35v0a0.35,0.35 0 0 1 -0.35,0.35h0a0.35,0.35 0 0 1 -0.35,-0.35v0a0.35,0.35 0 0 1 0.35,-0.35zM21.5,16.15h0a0.35,0.35 0 0 1 0.35,0.35v0a0.35,0.35 0 0 1 -0.35,0.35h0a0.35,0.35 0 0 1 -0.35,-0.35v0a0.35,0.35 0 0 1 0.35,-0.35zM22.5,16.15h0a0.35,0.35 0 0 1 0.35,0.35v0a0.35,0.35 0 0 1 -0.35,0.35h0a0.35,0.35 0 0 1 -0.35,-0.35v0a0.35,0.35 0 0 1 0.35,-0.35zM24.5,16.15h0a0.35,0.35 0 0 1 0.35,0.35v0a0.35,0.35 0 0 1 -0.35,0.35h0a0.35,0.35 0 0 1 -0.35,-0.35v0a0.35,0.35 0 0 1 0.35,-0.35zM9.5,17.15h0a0.35,0.35 0 0 1 0.35,0.35v0a0.35,0.35 0 0 1 -0.35,0.35h0a0.35,0.35 0 0 1 -0.35,-0.35v0a0.35,0.35 0 0 1 0.35,-0.35zM10.5,17.15h0a0.35,0.35 0 0 1 0.35,0.35v0a0.35,0.35 0 0 1 -0.35,0.35h0a0.35,0.35 0 0 1 -0.35,-0.35v0a0.35,0.35 0 0 1 0.35,-0.35zM12.5,17.15h0a0.35,0.35 0 0 1 0.35,0.35v0a0.35,0.35 0 0 1 -0.35,0.35h0a0.35,0.35 0 0 1 -0.35,-0.35v0a0.35,0.35 0 0 1 0.35,-0.35zM14.5,17.15h0a0.35,0.35 0 0 1 0.35,0.35v0a0.35,0.35 0 0 1 -0.35,0.35h0a0.35,0.35 0 0 1 -0.35,-0.35v0a0.35,0.35 0 0 1 0.35,-0.35zM15.5,17.15h0a0.35,0.35 0 0 1 0.35,0.35v0a0.35,0.35 0 0 1 -0.35,0.35h0a0.35,0.35 0 0 1 -0.35,-0.35v0a0.35,0.35 0 0 1 0.35,-0.35zM21.5,17.15h0a0.35,0.35 0 0 1 0.35,0.35v0a0.35,0.35 0 0 1 -0.35,0.35h0a0.35,0.35 0 0 1 -0.35,-0.35v0a0.35,0.35 0 0 1 0.35,-0.35zM22.5,17.15h0a0.35,0.35 0 0 1 0.35,0.35v0a0.35,0.35 0 0 1 -0.35,0.35h0a0.35,0.35 0 0 1 -0.35,-0.35v0a0.35,0.35 0 0 1 0.35,-0.35zM23.5,17.15h0a0.35,0.35 0 0 1 0.35,0.35v0a0.35,0.35 0 0 1 -0.35,0.35h0a0.35,0.35 0 0 1 -0.35,-0.35v0a0.35,0.35 0 0 1 0.35,-0.35zM8.5,18.15h0a0.35,0.35 0 0 1 0.35,0.35v0a0.35,0.35 0 0 1 -0.35,0.35h0a0.35,0.35 0 0 1 -0.35,-0.35v0a0.35,0.35 0 0 1 0.35,-0.35zM12.5,18.15h0a0.35,0.35 0 0 1 0.35,0.35v0a0.35,0.35 0 0 1 -0.35,0.35h0a0.35,0.35 0 0 1 -0.35,-0.35v0a0.35,0.35 0 0 1 0.35,-0.35zM15.5,18.15h0a0.35,0.35 0 0 1 0.35,0.35v0a0.35,0.35 0 0 1 -0.35,0.35h0a0.35,0.35 0 0 1 -0.35,-0.35v0a0.35,0.35 0 0 1 0.35,-0.35zM21.5,18.15h0a0.35,0.35 0 0 1 0.35,0.35v0a0.35,0.35 0 0 1 -0.35,0.35h0a0.35,0.35 0 0 1 -0.35,-0.35v0a0.35,0.35 0 0 1 0.35,-0.35zM22.5,18.15h0a0.35,0.35 0 0 1 0.35,0.35v0a0.35,0.35 0 0 1 -0.35,0.35h0a0.35,0.35 0 0 1 -0.35,-0.35v0a0.35,0.35 0 0 1 0.35,-0.35zM23.5,18.15h0a0.35,0.35 0 0 1 0.35,0.35v0a0.35,0.35 0 0 1 -0.35,0.35h0a0.35,0.35 0 0 1 -0.35,-0.35v0a0.35,0.35 0 0 1 0.35,-0.35zM9.5,19.15h0a0.35,0.35 0 0 1 0.35,0.35v0a0.35,0.35 0 0 1 -0.35,0.35h0a0.35,0.35 0 0 1 -0.35,-0.35v0a0.35,0.35 0 0 1 0.35,-0.35zM11.5,19.15h0a0.35,0.35 0 0 1 0.35,0.35v0a0.35,0.35 0 0 1 -0.35,0.35h0a0.35,0.35 0 0 1 -0.35,-0.35v0a0.35,0.35 0 0 1 0.35,-0.35zM12.5,19.15h0a0.35,0.35 0 0 1 0.35,0.35v0a0.35,0.35 0 0 1 -0.35,0.35h0a0.35,0.35 0 0 1 -0.35,-0.35v0a0.35,0.35 0 0 1 0.35,-0.35zM13.5,19.15h0a0.35,0.35 0 0 1 0.35,0.35v0a0.35,0.35 0 0 1 -0.35,0.35h0a0.35,0.35 0 0 1 -0.35,-0.35v0a0.35,0.35 0 0 1 0.35,-0.35zM14.5,19.15h0a0.35,0.35 0 0 1 0.35,0.35v0a0.35,0.35 0 0 1 -0.35,0.35h0a0.35,0.35 0 0 1 -0.35,-0.35v0a0.35,0.35 0 0 1 0.35,-0.35zM15.5,19.15h0a0.35,0.35 0 0 1 0.35,0.35v0a0.35,0.35 0 0 1 -0.35,0.35h0a0.35,0.35 0 0 1 -0.35,-0.35v0a0.35,0.35 0 0 1 0.35,-0.35zM21.5,19.15h0a0.35,0.35 0 0 1 0.35,0.35v0a0.35,0.35 0 0 1 -0.35,0.35h0a0.35,0.35 0 0 1 -0.35,-0.35v0a0.35,0.35 0 0 1 0.35,-0.35zM22.5,19.15h0a0.35,0.35 0 0 1 0.35,0.35v0a0.35,0.35 0 0 1 -0.35,0.35h0a0.35,0.35 0 0 1 -0.35,-0.35v0a0.35,0.35 0 0 1 0.35,-0.35zM23.5,19.15h0a0.35,0.35 0 0 1 0.35,0.35v0a0.35,0.35 0 0 1 -0.35,0.35h0a0.35,0.35 0 0 1 -0.35,-0.35v0a0.35,0.35 0 0 1 0.35,-0.35zM8.5,20.15h0a0.35,0.35 0 0 1 0.35,0.35v0a0.35,0.35 0 0 1 -0.35,0.35h0a0.35,0.35 0 0 1 -0.35,-0.35v0a0.35,0.35 0 0 1 0.35,-0.35zM11.5,20.15h0a0.35,0.35 0 0 1 0.35,0.35v0a0.35,0.35 0 0 1 -0.35,0.35h0a0.35,0.35 0 0 1 -0.35,-0.35v0a0.35,0.35 0 0 1 0.35,-0.35zM12.5,20.15h0a0.35,0.35 0 0 1 0.35,0.35v0a0.35,0.35 0 0 1 -0.35,0.35h0a0.35,0.35 0 0 1 -0.35,-0.35v0a0.35,0.35 0 0 1 0.35,-0.35zM13.5,20.15h0a0.35,0.35 0 0 1 0.35,0.35v0a0.35,0.35 0 0 1 -0.35,0.35h0a0.35,0.35 0 0 1 -0.35,-0.35v0a0.35,0.35 0 0 1 0.35,-0.35zM14.5,20.15h0a0.35,0.35 0 0 1 0.35,0.35v0a0.35,0.35 0 0 1 -0.35,0.35h0a0.35,0.35 0 0 1 -0.35,-0.35v0a0.35,0.35 0 0 1 0.35,-0.35zM21.5,20.15h0a0.35,0.35 0 0 1 0.35,0.35v0a0.35,0.35 0 0 1 -0.35,0.35h0a0.35,0.35 0 0 1 -0.35,-0.35v0a0.35,0.35 0 0 1 0.35,-0.35zM22.5,20.15h0a0.35,0.35 0 0 1 0.35,0.35v0a0.35,0.35 0 0 1 -0.35,0.35h0a0.35,0.35 0 0 1 -0.35,-0.35v0a0.35,0.35 0 0 1 0.35,-0.35zM23.5,20.15h0a0.35,0.35 0 0 1 0.35,0.35v0a0.35,0.35 0 0 1 -0.35,0.35h0a0.35,0.35 0 0 1 -0.35,-0.35v0a0.35,0.35 0 0 1 0.35,-0.35zM24.5,20.15h0a0.35,0.35 0 0 1 0.35,0.35v0a0.35,0.35 0 0 1 -0.35,0.35h0a0.35,0.35 0 0 1 -0.35,-0.35v0a0.35,0.35 0 0 1 0.35,-0.35zM8.5,21.15h0a0.35,0.35 0 0 1 0.35,0.35v0a0.35,0.35 0 0 1 -0.35,0.35h0a0.35,0.35 0 0 1 -0.35,-0.35v0a0.35,0.35 0 0 1 0.35,-0.35zM10.5,21.15h0a0.35,0.35 0 0 1 0.35,0.35v0a0.35,0.35 0 0 1 -0.35,0.35h0a0.35,0.35 0 0 1 -0.35,-0.35v0a0.35,0.35 0 0 1 0.35,-0.35zM13.5,21.15h0a0.35,0.35 0 0 1 0.35,0.35v0a0.35,0.35 0 0 1 -0.35,0.35h0a0.35,0.35 0 0 1 -0.35,-0.35v0a0.35,0.35 0 0 1 0.35,-0.35zM14.5,21.15h0a0.35,0.35 0 0 1 0.35,0.35v0a0.35,0.35 0 0 1 -0.35,0.35h0a0.35,0.35 0 0 1 -0.35,-0.35v0a0.35,0.35 0 0 1 0.35,-0.35zM16.5,21.15h0a0.35,0.35 0 0 1 0.35,0.35v0a0.35,0.35 0 0 1 -0.35,0.35h0a0.35,0.35 0 0 1 -0.35,-0.35v0a0.35,0.35 0 0 1 0.35,-0.35zM18.5,21.15h0a0.35,0.35 0 0 1 0.35,0.35v0a0.35,0.35 0 0 1 -0.35,0.35h0a0.35,0.35 0 0 1 -0.35,-0.35v0a0.35,0.35 0 0 1 0.35,-0.35zM19.5,21.15h0a0.35,0.35 0 0 1 0.35,0.35v0a0.35,0.35 0 0 1 -0.35,0.35h0a0.35,0.35 0 0 1 -0.35,-0.35v0a0.35,0.35 0 0 1 0.35,-0.35zM21.5,21.15h0a0.35,0.35 0 0 1 0.35,0.35v0a0.35,0.35 0 0 1 -0.35,0.35h0a0.35,0.35 0 0 1 -0.35,-0.35v0a0.35,0.35 0 0 1 0.35,-0.35zM24.5,21.15h0a0.35,0.35 0 0 1 0.35,0.35v0a0.35,0.35 0 0 1 -0.35,0.35h0a0.35,0.35 0 0 1 -0.35,-0.35v0a0.35,0.35 0 0 1 0.35,-0.35zM9.5,22.15h0a0.35,0.35 0 0 1 0.35,0.35v0a0.35,0.35 0 0 1 -0.35,0.35h0a0.35,0.35 0 0 1 -0.35,-0.35v0a0.35,0.35 0 0 1 0.35,-0.35zM10.5,22.15h0a0.35,0.35 0 0 1 0.35,0.35v0a0.35,0.35 0 0 1 -0.35,0.35h0a0.35,0.35 0 0 1 -0.35,-0.35v0a0.35,0.35 0 0 1 0.35,-0.35zM12.5,22.15h0a0.35,0.35 0 0 1 0.35,0.35v0a0.35,0.35 0 0 1 -0.35,0.35h0a0.35,0.35 0 0 1 -0.35,-0.35v0a0.35,0.35 0 0 1 0.35,-0.35zM14.5,22.15h0a0.35,0.35 0 0 1 0.35,0.35v0a0.35,0.35 0 0 1 -0.35,0.35h0a0.35,0.35 0 0 1 -0.35,-0.35v0a0.35,0.35 0 0 1 0.35,-0.35zM15.5,22.15h0a0.35,0.35 0 0 1 0.35,0.35v0a0.35,0.35 0 0 1 -0.35,0.35h0a0.35,0.35 0 0 1 -0.35,-0.35v0a0.35,0.35 0 0 1 0.35,-0.35zM18.5,22.15h0a0.35,0.35 0 0 1 0.35,0.35v0a0.35,0.35 0 0 1 -0.35,0.35h0a0.35,0.35 0 0 1 -0.35,-0.35v0a0.35,0.35 0 0 1 0.35,-0.35zM22.5,22.15h0a0.35,0.35 0 0 1 0.35,0.35v0a0.35,0.35 0 0 1 -0.35,0.35h0a0.35,0.35 0 0 1 -0.35,-0.35v0a0.35,0.35 0 0 1 0.35,-0.35zM11.5,23.15h0a0.35,0.35 0 0 1 0.35,0.35v0a0.35,0.35 0 0 1 -0.35,0.35h0a0.35,0.35 0 0 1 -0.35,-0.35v0a0.35,0.35 0 0 1 0.35,-0.35zM12.5,23.15h0a0.35,0.35 0 0 1 0.35,0.35v0a0.35,0.35 0 0 1 -0.35,0.35h0a0.35,0.35 0 0 1 -0.35,-0.35v0a0.35,0.35 0 0 1 0.35,-0.35zM13.5,23.15h0a0.35,0.35 0 0 1 0.35,0.35v0a0.35,0.35 0 0 1 -0.35,0.35h0a0.35,0.35 0 0 1 -0.35,-0.35v0a0.35,0.35 0 0 1 0.35,-0.35zM14.5,23.15h0a0.35,0.35 0 0 1 0.35,0.35v0a0.35,0.35 0 0 1 -0.35,0.35h0a0.35,0.35 0 0 1 -0.35,-0.35v0a0.35,0.35 0 0 1 0.35,-0.35zM15.5,23.15h0a0.35,0.35 0 0 1 0.35,0.35v0a0.35,0.35 0 0 1 -0.35,0.35h0a0.35,0.35 0 0 1 -0.35,-0.35v0a0.35,0.35 0 0 1 0.35,-0.35zM18.5,23.15h0a0.35,0.35 0 0 1 0.35,0.35v0a0.35,0.35 0 0 1 -0.35,0.35h0a0.35,0.35 0 0 1 -0.35,-0.35v0a0.35,0.35 0 0 1 0.35,-0.35zM21.5,23.15h0a0.35,0.35 0 0 1 0.35,0.35v0a0.35,0.35 0 0 1 -0.35,0.35h0a0.35,0.35 0 0 1 -0.35,-0.35v0a0.35,0.35 0 0 1 0.35,-0.35zM22.5,23.15h0a0.35,0.35 0 0 1 0.35,0.35v0a0.35,0.35 0 0 1 -0.35,0.35h0a0.35,0.35 0 0 1 -0.35,-0.35v0a0.35,0.35 0 0 1 0.35,-0.35zM23.5,23.15h0a0.35,0.35 0 0 1 0.35,0.35v0a0.35,0.35 0 0 1 -0.35,0.35h0a0.35,0.35 0 0 1 -0.35,-0.35v0a0.35,0.35 0 0 1 0.35,-0.35zM24.5,23.15h0a0.35,0.35 0 0 1 0.35,0.35v0a0.35,0.35 0 0 1 -0.35,0.35h0a0.35,0.35 0 0 1 -0.35,-0.35v0a0.35,0.35 0 0 1 0.35,-0.35zM13.5,24.15h0a0.35,0.35 0 0 1 0.35,0.35v0a0.35,0.35 0 0 1 -0.35,0.35h0a0.35,0.35 0 0 1 -0.35,-0.35v0a0.35,0.35 0 0 1 0.35,-0.35zM14.5,24.15h0a0.35,0.35 0 0 1 0.35,0.35v0a0.35,0.35 0 0 1 -0.35,0.35h0a0.35,0.35 0 0 1 -0.35,-0.35v0a0.35,0.35 0 0 1 0.35,-0.35zM15.5,24.15h0a0.35,0.35 0 0 1 0.35,0.35v0a0.35,0.35 0 0 1 -0.35,0.35h0a0.35,0.35 0 0 1 -0.35,-0.35v0a0.35,0.35 0 0 1 0.35,-0.35zM19.5,24.15h0a0.35,0.35 0 0 1 0.35,0.35v0a0.35,0.35 0 0 1 -0.35,0.35h0a0.35,0.35 0 0 1 -0.35,-0.35v0a0.35,0.35 0 0 1 0.35,-0.35zM20.5,24.15h0a0.35,0.35 0 0 1 0.35,0.35v0a0.35,0.35 0 0 1 -0.35,0.35h0a0.35,0.35 0 0 1 -0.35,-0.35v0a0.35,0.35 0 0 1 0.35,-0.35zM22.5,24.15h0a0.35,0.35 0 0 1 0.35,0.35v0a0.35,0.35 0 0 1 -0.35,0.35h0a0.35,0.35 0 0 1 -0.35,-0.35v0a0.35,0.35 0 0 1 0.35,-0.35zM23.5,24.15h0a0.35,0.35 0 0 1 0.35,0.35v0a0.35,0.35 0 0 1 -0.35,0.35h0a0.35,0.35 0 0 1 -0.35,-0.35v0a0.35,0.35 0 0 1 0.35,-0.35z"></path><path id="qr squares" d="M3.5,-1h0a4.5,4.5 0 0 1 4.5,4.5v0a4.5,4.5 0 0 1 -4.5,4.5h0a4.5,4.5 0 0 1 -4.5,-4.5v0a4.5,4.5 0 0 1 4.5,-4.5zM3.5,0h0a3.5,3.5 0 0 1 3.5,3.5v0a3.5,3.5 0 0 1 -3.5,3.5h0a3.5,3.5 0 0 1 -3.5,-3.5v0a3.5,3.5 0 0 1 3.5,-3.5zM3.5,1h0a2.5,2.5 0 0 1 2.5,2.5v0a2.5,2.5 0 0 1 -2.5,2.5h0a2.5,2.5 0 0 1 -2.5,-2.5v0a2.5,2.5 0 0 1 2.5,-2.5zM3.5,2h0a1.5,1.5 0 0 1 1.5,1.5v0a1.5,1.5 0 0 1 -1.5,1.5h0a1.5,1.5 0 0 1 -1.5,-1.5v0a1.5,1.5 0 0 1 1.5,-1.5z M21.5,-1h0a4.5,4.5 0 0 1 4.5,4.5v0a4.5,4.5 0 0 1 -4.5,4.5h0a4.5,4.5 0 0 1 -4.5,-4.5v0a4.5,4.5 0 0 1 4.5,-4.5zM21.5,0h0a3.5,3.5 0 0 1 3.5,3.5v0a3.5,3.5 0 0 1 -3.5,3.5h0a3.5,3.5 0 0 1 -3.5,-3.5v0a3.5,3.5 0 0 1 3.5,-3.5zM21.5,1h0a2.5,2.5 0 0 1 2.5,2.5v0a2.5,2.5 0 0 1 -2.5,2.5h0a2.5,2.5 0 0 1 -2.5,-2.5v0a2.5,2.5 0 0 1 2.5,-2.5zM21.5,2h0a1.5,1.5 0 0 1 1.5,1.5v0a1.5,1.5 0 0 1 -1.5,1.5h0a1.5,1.5 0 0 1 -1.5,-1.5v0a1.5,1.5 0 0 1 1.5,-1.5z M3.5,17h0a4.5,4.5 0 0 1 4.5,4.5v0a4.5,4.5 0 0 1 -4.5,4.5h0a4.5,4.5 0 0 1 -4.5,-4.5v0a4.5,4.5 0 0 1 4.5,-4.5zM3.5,18h0a3.5,3.5 0 0 1 3.5,3.5v0a3.5,3.5 0 0 1 -3.5,3.5h0a3.5,3.5 0 0 1 -3.5,-3.5v0a3.5,3.5 0 0 1 3.5,-3.5zM3.5,19h0a2.5,2.5 0 0 1 2.5,2.5v0a2.5,2.5 0 0 1 -2.5,2.5h0a2.5,2.5 0 0 1 -2.5,-2.5v0a2.5,2.5 0 0 1 2.5,-2.5zM3.5,20h0a1.5,1.5 0 0 1 1.5,1.5v0a1.5,1.5 0 0 1 -1.5,1.5h0a1.5,1.5 0 0 1 -1.5,-1.5v0a1.5,1.5 0 0 1 1.5,-1.5zM18.5,17h0a1.5,1.5 0 0 1 1.5,1.5v0a1.5,1.5 0 0 1 -1.5,1.5h0a1.5,1.5 0 0 1 -1.5,-1.5v0a1.5,1.5 0 0 1 1.5,-1.5zM18.5,18h0a0.5,0.5 0 0 1 0.5,0.5v0a0.5,0.5 0 0 1 -0.5,0.5h0a0.5,0.5 0 0 1 -0.5,-0.5v0a0.5,0.5 0 0 1 0.5,-0.5z" fill-rule="evenodd" fill-opacity="1" fill="rgb(255, 205, 78)"></path></svg>